#!OML:ASF H:\BabyWalks\Project 1\Capture day 1\Session 1\baby.ASF
:FULLY-SPECIFIED
:DEGREES
722
root 35.8719 17.5792 -5.3727 -181.737 76.9378 -189.839
lowerback 18.3474 -2.13231 3.45792
upperback 5.3188 -1.53792 3.25801
thorax -4.55589 -0.588526 1.82545
lowerneck -0.973249 -3.22683 3.54167
upperneck -8.3377 -4.6097 -6.6388
head -2.7834 -2.16134 -2.6962
rclavicle 1.66979e-014 -9.54166e-015
rhumerus -43.8505 7.37861 -78.1832
rradius 53.698
rwrist -1.35778
rhand -11.3696 -17.4433
rfingers 7.12502
rthumb 14.6644 -46.9048
lclavicle 1.66979e-014 -9.54166e-015
lhumerus -41.8995 -3.14395 79.2022
lradius 61.6746
lwrist 1.67706
lhand -3.61644 7.9507
lfingers 7.12502
lthumb 22.1222 36.7051
rfemur -25.3664 5.08039 20.629
rtibia 37.6241
rfoot -17.6761 -6.68692
rtoes 7.06797
lfemur 15.2169 -4.69071 -13.5926
ltibia 0.431389
lfoot -10.0881 0.673481
ltoes -23.2059
723
root 35.883 17.5757 -5.3729 -181.283 76.8551 -189.38
lowerback 18.3592 -2.1287 3.54001
upperback 5.31604 -1.51581 3.26587
thorax -4.56712 -0.57747 1.78301
lowerneck -0.971865 -3.23331 3.52726
upperneck -8.31622 -4.6171 -6.63006
head -2.77601 -2.16514 -2.6902
rclavicle 2.94201e-014 -4.77083e-015
rhumerus -43.8979 7.34334 -78.0446
rradius 53.1965
rwrist -0.932224
rhand -10.9518 -17.3799
rfingers 7.12502
rthumb 15.0669 -46.8116
lclavicle 2.94201e-014 -4.77083e-015
lhumerus -41.8231 -3.31339 79.3334
lradius 62.3051
lwrist 1.87983
lhand -3.94282 7.76667
lfingers 7.12502
lthumb 21.8089 36.5579
rfemur -25.3202 5.0179 20.7453
rtibia 37.6289
rfoot -17.7395 -6.68056
rtoes 7.08674
lfemur 15.0786 -4.77986 -13.461
ltibia 0.756338
lfoot -10.3046 0.668082
ltoes -23.317
724
root 35.8935 17.5728 -5.37373 -180.884 76.7813 -188.979
lowerback 18.3678 -2.12588 3.61122
upperback 5.31027 -1.49775 3.26733
thorax -4.57969 -0.568644 1.74075
lowerneck -0.968101 -3.23706 3.51045
upperneck -8.29701 -4.62085 -6.62033
head -2.7695 -2.167 -2.6835
rclavicle 2.22639e-014 1.11319e-014
rhumerus -43.948 7.31484 -77.907
rradius 52.7293
rwrist -0.574259
rhand -10.5347 -17.3014
rfingers 7.12502
rthumb 15.4687 -46.7025
lclavicle 2.22639e-014 1.11319e-014
lhumerus -41.7767 -3.50296 79.4754
lradius 62.9291
lwrist 2.0837
lhand -4.19712 7.60469
lfingers 7.12502
lthumb 21.5647 36.4241
rfemur -25.272 4.9635 20.8471
rtibia 37.6223
rfoot -17.7992 -6.67825
rtoes 7.11404
lfemur 15.0334 -4.85783 -13.3495
ltibia 0.886878
lfoot -10.4179 0.664029
ltoes -23.4006
725
root 35.9035 17.5705 -5.37522 -180.543 76.7184 -188.637
lowerback 18.3729 -2.12389 3.66967
upperback 5.3036 -1.48411 3.26238
thorax -4.59119 -0.562146 1.69976
lowerneck -0.961086 -3.23658 3.49184
upperneck -8.282 -4.61882 -6.6071
head -2.76446 -2.1659 -2.67541
rclavicle 2.54444e-014 -1.59028e-015
rhumerus -43.9973 7.29076 -77.7703
rradius 52.2985
rwrist -0.283627
rhand -10.1266 -17.2227
rfingers 7.12502
rthumb 15.8617 -46.593
lclavicle 2.54444e-014 -1.59028e-015
lhumerus -41.7585 -3.71008 79.6264
lradius 63.5419
lwrist 2.28945
lhand -4.38467 7.46137
lfingers 7.12502
lthumb 21.3845 36.3013
rfemur -25.22 4.91465 20.9346
rtibia 37.6046
rfoot -17.8543 -6.67736
rtoes 7.13893
lfemur 15.028 -4.92291 -13.2586
ltibia 0.939481
lfoot -10.4873 0.669249
ltoes -23.4673
726
root 35.9126 17.5685 -5.37711 -180.252 76.6576 -188.348
lowerback 18.3755 -2.12451 3.71447
upperback 5.29369 -1.47713 3.25321
thorax -4.60457 -0.559126 1.66344
lowerneck -0.948453 -3.2317 3.4686
upperneck -8.27256 -4.61068 -6.58805
head -2.76161 -2.16162 -2.66461
rclavicle -1.03368e-014 2.70347e-014
rhumerus -44.0452 7.26647 -77.6323
rradius 51.9037
rwrist -0.0584451
rhand -9.7446 -17.1502
rfingers 7.12502
rthumb 16.2296 -46.4909
lclavicle -1.03368e-014 2.70347e-014
lhumerus -41.7647 -3.93383 79.7869
lradius 64.1355
lwrist 2.49596
lhand -4.49849 7.34261
lfingers 7.12502
lthumb 21.2752 36.1949
rfemur -25.1699 4.85743 21.0087
rtibia 37.577
rfoot -17.9036 -6.67338
rtoes 7.15899
lfemur 15.0223 -4.98351 -13.1871
ltibia 0.979943
lfoot -10.5441 0.689514
ltoes -23.5179
727
root 35.9211 17.5671 -5.37936 -179.993 76.602 -188.093
lowerback 18.3768 -2.12765 3.74744
upperback 5.28151 -1.47601 3.24275
thorax -4.61933 -0.559114 1.63374
lowerneck -0.949189 -3.22175 3.4531
upperneck -8.2546 -4.59618 -6.58099
head -2.75376 -2.15441 -2.6596
rclavicle -4.85035e-014 3.97569e-014
rhumerus -44.0885 7.23998 -77.4901
rradius 51.547
rwrist 0.0998101
rhand -9.39726 -17.0975
rfingers 7.12502
rthumb 16.564 -46.4106
lclavicle -4.85035e-014 3.97569e-014
lhumerus -41.7961 -4.17105 79.9578
lradius 64.7072
lwrist 2.70157
lhand -4.5544 7.2421
lfingers 7.12502
lthumb 21.2215 36.1004
rfemur -25.1195 4.80611 21.0735
rtibia 37.5398
rfoot -17.9496 -6.67496
rtoes 7.18
lfemur 14.991 -5.03691 -13.129
ltibia 1.06698
lfoot -10.6178 0.727454
ltoes -23.5587
728
root 35.9289 17.5664 -5.38189 -179.753 76.5487 -187.861
lowerback 18.3732 -2.13319 3.76863
upperback 5.26653 -1.48056 3.23397
thorax -4.63426 -0.562016 1.61364
lowerneck -0.947587 -3.20881 3.43452
upperneck -8.23923 -4.57789 -6.57628
head -2.74697 -2.14505 -2.65492
rclavicle 3.97569e-015 -5.24792e-014
rhumerus -44.1281 7.21111 -77.3407
rradius 51.2282
rwrist 0.198033
rhand -9.09397 -17.0678
rfingers 7.12502
rthumb 16.856 -46.3562
lclavicle 3.97569e-015 -5.24792e-014
lhumerus -41.8501 -4.41748 80.1409
lradius 65.2519
lwrist 2.90248
lhand -4.55818 7.16074
lfingers 7.12502
lthumb 21.2179 36.0195
rfemur -25.07 4.76923 21.1304
rtibia 37.4932
rfoot -17.992 -6.69533
rtoes 7.19085
lfemur 14.9274 -5.08611 -13.0814
ltibia 1.2086
lfoot -10.7124 0.783123
ltoes -23.5967
729
root 35.936 17.5659 -5.38471 -179.539 76.4965 -187.655
lowerback 18.3676 -2.14093 3.77886
upperback 5.25235 -1.49011 3.22615
thorax -4.64693 -0.567332 1.60179
lowerneck -0.935216 -3.1904 3.41401
upperneck -8.2379 -4.55257 -6.57128
head -2.74643 -2.13168 -2.64993
rclavicle 1.66979e-014 3.49861e-014
rhumerus -44.1601 7.17433 -77.1836
rradius 50.9521
rwrist 0.23727
rhand -8.83976 -17.0656
rfingers 7.12502
rthumb 17.1007 -46.333
lclavicle 1.66979e-014 3.49861e-014
lhumerus -41.9179 -4.67352 80.3347
lradius 65.7645
lwrist 3.09683
lhand -4.51193 7.09651
lfingers 7.12502
lthumb 21.2623 35.9503
rfemur -25.0195 4.72885 21.1806
rtibia 37.4398
rfoot -18.0296 -6.71719
rtoes 7.2016
lfemur 14.8719 -5.13285 -13.0456
ltibia 1.33018
lfoot -10.7931 0.854495
ltoes -23.6125
730
root 35.9425 17.5658 -5.3878 -179.346 76.4448 -187.469
lowerback 18.3575 -2.15078 3.7776
upperback 5.23925 -1.50472 3.22041
thorax -4.65573 -0.575069 1.59961
lowerneck -0.928667 -3.17093 3.39663
upperneck -8.23792 -4.52616 -6.57107
head -2.7455 -2.11777 -2.64726
rclavicle -3.33958e-014 -1.59028e-014
rhumerus -44.1856 7.12546 -77.0165
rradius 50.7208
rwrist 0.230365
rhand -8.63591 -17.0915
rfingers 7.12502
rthumb 17.2969 -46.3418
lclavicle -3.33958e-014 -1.59028e-014
lhumerus -41.9968 -4.93415 80.5392
lradius 66.2409
lwrist 3.28146
lhand -4.42744 7.05146
lfingers 7.12502
lthumb 21.3434 35.896
rfemur -24.9683 4.69474 21.2241
rtibia 37.3818
rfoot -18.0645 -6.74905
rtoes 7.20737
lfemur 14.8525 -5.17794 -13.0211
ltibia 1.37453
lfoot -10.8255 0.935468
ltoes -23.6433
